<svg version="1.1" viewBox="0.0 0.0 960.0 720.0" fill="none" stroke="none" stroke-linecap="square" stroke-miterlimit="10" xmlns:xlink="http://www.w3.org/1999/xlink" xmlns="http://www.w3.org/2000/svg"><clipPath id="p.0"><path d="m0 0l960.0 0l0 720.0l-960.0 0l0 -720.0z" clip-rule="nonzero"/></clipPath><g clip-path="url(#p.0)"><path fill="#000000" fill-opacity="0.0" d="m0 0l960.0 0l0 720.0l-960.0 0z" fill-rule="evenodd"/><path fill="#000000" fill-opacity="0.0" d="m298.76904 196.28346c-15.838501 0 -35.0235 2.5986938 -45.16275 14.766403c-5.9421997 7.131012 -5.508484 19.310852 -1.7375336 27.792648c9.6792145 21.77092 42.091324 22.347488 63.401596 33.00264c10.742035 5.371002 14.923523 23.997467 9.5538025 34.740143c-6.471863 12.947632 -27.21643 11.831116 -41.687683 12.160095c-25.726715 0.5848694 -52.66565 -7.9333496 -73.82414 -22.580048" fill-rule="evenodd"/><path stroke="#000000" stroke-width="1.0" stroke-linejoin="round" stroke-linecap="butt" d="m298.76904 196.28346c-15.838501 0 -35.0235 2.5986938 -45.16275 14.766403c-5.9421997 7.131012 -5.508484 19.310852 -1.7375336 27.792648c9.6792145 21.77092 42.091324 22.347488 63.401596 33.00264c10.742035 5.371002 14.923523 23.997467 9.5538025 34.740143c-6.471863 12.947632 -27.21643 11.831116 -41.687683 12.160095c-25.726715 0.5848694 -52.66565 -7.9333496 -73.82414 -22.580048" fill-rule="evenodd"/><path fill="#000000" fill-opacity="0.0" d="m333.5092 211.04987c14.591248 26.255463 27.752716 53.323303 39.95276 80.77167c2.686493 6.04422 1.5413208 20.330475 7.816284 18.23883c5.4096375 -1.8032227 4.9618225 -10.28714 6.9474792 -15.632538c6.5287476 -17.575348 10.8880005 -36.090393 13.0289 -54.716537c2.3986816 -20.86908 -2.609253 -44.29602 7.8162537 -62.532806" fill-rule="evenodd"/><path stroke="#000000" stroke-width="1.0" stroke-linejoin="round" stroke-linecap="butt" d="m333.5092 211.04987c14.591248 26.255463 27.752716 53.323303 39.95276 80.77167c2.686493 6.04422 1.5413208 20.330475 7.816284 18.23883c5.4096375 -1.8032227 4.9618225 -10.28714 6.9474792 -15.632538c6.5287476 -17.575348 10.8880005 -36.090393 13.0289 -54.716537c2.3986816 -20.86908 -2.609253 -44.29602 7.8162537 -62.532806" fill-rule="evenodd"/><path fill="#000000" fill-opacity="0.0" d="m508.95013 192.80992c-14.080322 -8.448746 -35.35739 -17.473755 -48.637787 -7.816269c-13.7022705 9.964264 -14.763794 31.692947 -14.763794 48.635178c0 19.379837 0.19403076 42.750443 13.897644 56.454056c9.524811 9.524811 33.924286 18.12851 39.950134 6.08136c4.6697083 -9.335907 5.6143494 -21.575653 1.7375183 -31.2677c-3.8105774 -9.5264435 -20.993103 -14.376434 -29.530182 -8.685059c-4.343109 2.8954163 10.421936 1.1295166 15.635162 0.8687744c9.292389 -0.4647522 18.666931 -0.7805786 27.79004 -2.6062927" fill-rule="evenodd"/><path stroke="#000000" stroke-width="1.0" stroke-linejoin="round" stroke-linecap="butt" d="m508.95013 192.80992c-14.080322 -8.448746 -35.35739 -17.473755 -48.637787 -7.816269c-13.7022705 9.964264 -14.763794 31.692947 -14.763794 48.635178c0 19.379837 0.19403076 42.750443 13.897644 56.454056c9.524811 9.524811 33.924286 18.12851 39.950134 6.08136c4.6697083 -9.335907 5.6143494 -21.575653 1.7375183 -31.2677c-3.8105774 -9.5264435 -20.993103 -14.376434 -29.530182 -8.685059c-4.343109 2.8954163 10.421936 1.1295166 15.635162 0.8687744c9.292389 -0.4647522 18.666931 -0.7805786 27.79004 -2.6062927" fill-rule="evenodd"/><path fill="#000000" fill-opacity="0.0" d="m349.1434 364.77692c-4.1844482 10.454803 -19.496094 13.773956 -23.451447 24.317566c-2.8327637 7.5512085 14.9045105 6.217102 22.582672 8.685059c10.111328 3.25 20.244934 6.431183 30.396332 9.5538025" fill-rule="evenodd"/><path stroke="#000000" stroke-width="1.0" stroke-linejoin="round" stroke-linecap="butt" d="m349.1434 364.77692c-4.1844482 10.454803 -19.496094 13.773956 -23.451447 24.317566c-2.8327637 7.5512085 14.9045105 6.217102 22.582672 8.685059c10.111328 3.25 20.244934 6.431183 30.396332 9.5538025" fill-rule="evenodd"/><path fill="#000000" fill-opacity="0.0" d="m383.88452 357.82956c0 -11.93692 16.315002 -25.862 27.792633 -22.582672c11.816589 3.3761597 -8.200256 23.394257 -9.5538025 35.608917c-0.098480225 0.8888855 5.724945 -1.3341064 8.685059 -1.7375183c16.725952 -2.2794495 43.608032 -10.253265 50.37268 5.2125854c5.398163 12.341614 -6.552582 30.727692 -19.107605 35.608917c-7.72641 3.0039368 -16.902588 -1.5033875 -24.317566 -5.209961" fill-rule="evenodd"/><path stroke="#000000" stroke-width="1.0" stroke-linejoin="round" stroke-linecap="butt" d="m383.88452 357.82956c0 -11.93692 16.315002 -25.862 27.792633 -22.582672c11.816589 3.3761597 -8.200256 23.394257 -9.5538025 35.608917c-0.098480225 0.8888855 5.724945 -1.3341064 8.685059 -1.7375183c16.725952 -2.2794495 43.608032 -10.253265 50.37268 5.2125854c5.398163 12.341614 -6.552582 30.727692 -19.107605 35.608917c-7.72641 3.0039368 -16.902588 -1.5033875 -24.317566 -5.209961" fill-rule="evenodd"/></g></svg>